<!-- <svg xmlns="http://www.w3.org/2000/svg" width="1em" height="1em" viewBox="0 0 128 128">
	<circle cx="64" cy="64" r="64" fill="0000FF"/>
	<path fill="url(#deviconNextjs0)" d="M106.317 112.014L49.167 38.4H38.4v51.179h8.614v-40.24l52.54 67.884a64 64 0 0 0 6.763-5.209" />
	<path fill="url(#deviconNextjs1)" d="M81.778 38.4h8.533v51.2h-8.533z" />
	<defs>
		<linearGradient id="deviconNextjs0" x1="109" x2="144.5" y1="116.5" y2="160.5" gradientTransform="scale(.71111)" gradientUnits="userSpaceOnUse">
			<stop stop-color="white" />
			<stop offset="1" stop-color="white" stop-opacity="0" />
		</linearGradient>
		<linearGradient id="deviconNextjs1" x1="121" x2="120.799" y1="54" y2="106.875" gradientTransform="scale(.71111)" gradientUnits="userSpaceOnUse">
			<stop stop-color="white" />
			<stop offset="1" stop-color="white" stop-opacity="0" />
		</linearGradient>
	</defs>
</svg> -->
<!-- <svg xmlns="http://www.w3.org/2000/svg" viewBox="0 0 128 128">
  <circle cx="62" cy="62" r="62" fill="#111111" stroke="#FFF" stroke-width="6"/>
	<path fill="url(#deviconNextjs0)" d="M106.317 112.014L49.167 38.4H38.4v51.179h8.614v-40.24l52.54 67.884a64 64 0 0 0 6.763-5.209" />
	<path fill="url(#deviconNextjs1)" d="M81.778 38.4h8.533v51.2h-8.533z" />
	<defs>
		<linearGradient id="deviconNextjs0" x1="109" x2="144.5" y1="116.5" y2="160.5" gradientTransform="scale(.71111)" gradientUnits="userSpaceOnUse">
			<stop stop-color="white" />
			<stop offset="1" stop-color="white" stop-opacity="0" />
		</linearGradient>
		<linearGradient id="deviconNextjs1" x1="121" x2="120.799" y1="54" y2="106.875" gradientTransform="scale(.71111)" gradientUnits="userSpaceOnUse">
			<stop stop-color="white" />
			<stop offset="1" stop-color="white" stop-opacity="0" />
		</linearGradient>
	</defs>
</svg> -->

<svg width="180" height="180" viewBox="0 0 180 180" fill="none" xmlns="http://www.w3.org/2000/svg">
<mask id="mask0_408_139" style="mask-type:alpha" maskUnits="userSpaceOnUse" x="0" y="0" width="180" height="180">
<circle cx="90" cy="90" r="90" fill="black"/>
</mask>
<g mask="url(#mask0_408_139)">
<circle cx="90" cy="90" r="87" fill="#111111" stroke="white" stroke-width="6"/>
<path d="M149.508 157.52L69.142 54H54V125.97H66.1136V69.3836L139.999 164.845C143.333 162.614 146.509 160.165 149.508 157.52Z" fill="url(#paint0_linear_408_139)"/>
<rect x="115" y="54" width="12" height="72" fill="url(#paint1_linear_408_139)"/>
</g>
<defs>
<linearGradient id="paint0_linear_408_139" x1="109" y1="116.5" x2="144.5" y2="160.5" gradientUnits="userSpaceOnUse">
<stop stop-color="white"/>
<stop offset="1" stop-color="white" stop-opacity="0"/>
</linearGradient>
<linearGradient id="paint1_linear_408_139" x1="121" y1="54" x2="120.799" y2="106.875" gradientUnits="userSpaceOnUse">
<stop stop-color="white"/>
<stop offset="1" stop-color="white" stop-opacity="0"/>
</linearGradient>
</defs>
</svg>
